<svg width="512" height="512" viewBox="0 0 512 512" fill="none" xmlns="http://www.w3.org/2000/svg">
  <rect width="512" height="512" rx="96" fill="#1E1E1E"/>
  <g fill="#FFFFFF">
    <!-- Top-left square -->
    <rect x="128" y="128" width="100" height="100" />
    <rect x="148" y="148" width="60" height="60" fill="#1E1E1E" />
    <rect x="163" y="163" width="30" height="30" />

    <!-- Top-right square -->
    <rect x="284" y="128" width="100" height="100" />
    <rect x="304" y="148" width="60" height="60" fill="#1E1E1E" />
    <rect x="319" y="163" width="30" height="30" />
    
    <!-- Bottom-left square -->
    <rect x="128" y="284" width="100" height="100" />
    <rect x="148" y="304" width="60" height="60" fill="#1E1E1E" />
    <rect x="163" y="319" width="30" height="30" />

    <!-- Small dots -->
    <rect x="248" y="248" width="20" height="20"/>
    <rect x="288" y="248" width="20" height="20"/>
    <rect x="248" y="288" width="20" height="20"/>
    
    <rect x="288" y="288" width="20" height="20"/>
    <rect x="328" y="288" width="20" height="20"/>
    <rect x="368" y="288" width="20" height="20"/>
    
    <rect x="288" y="328" width="20" height="20"/>
    <rect x="288" y="368" width="20" height="20"/>
    
    <rect x="328" y="328" width="20" height="20"/>
  </g>
</svg>
